<svg xmlns="http://www.w3.org/2000/svg" width="17px" height="17px">
<style type="text/css">
	.st0{fill:#FFFFFF;}
</style>
<path class="st0" d="M8.5,0C3.8,0,0,3.8,0,8.5c0,1.6,0,2.3,0.8,3.6L0,17l4.6-0.9C5.9,16.8,7,17,8.5,17c4.7,0,8.5-3.8,8.5-8.5
	S13.2,0,8.5,0z M8.5,15.2c-1.2,0-2.3-0.3-3.3-0.9l-3,0.4l0.5-2.9c-0.6-1-0.9-2.2-0.9-3.4c0-3.7,3-6.7,6.7-6.7c3.7,0,6.7,3,6.7,6.7
	S12.2,15.2,8.5,15.2z"/>
<path class="st0" d="M4.7,11.6c-0.1-0.3-0.2-0.5-0.2-0.8c0-0.1,0-0.1,0-0.1c0,0,0.1-0.1,0.3-0.2c0.2-0.1,1.4-0.8,1.4-0.8
	c0.1,0,0.1,0,0.2,0c0.1,0,0.2,0.1,0.4,0.2C7,10,7.1,10.2,7.3,10.3c0.1,0.2,0.3,0.3,0.3,0.3c0,0,0.1,0,0.1,0c0,0,0.3-0.2,0.4-0.2
	c0.5-0.3,0.9-0.6,1.3-1c0.4-0.4,0.7-0.8,1-1.3c0,0,0.2-0.4,0.2-0.5c0-0.1-0.1-0.2-0.2-0.3c-0.1-0.1-0.6-0.5-0.7-0.6
	C9.6,6.6,9.6,6.5,9.6,6.5c0-0.1,0-0.1,0-0.2c0-0.1,0.3-0.4,0.3-0.6C10,5.6,10.3,5.2,10.3,5c0.1-0.1,0.3-0.4,0.3-0.5c0,0,0.1,0,0.1,0
	c0.2,0,0.5,0.1,0.8,0.2c0.2,0.1,0.4,0.3,0.6,0.7c0.2,0.4,0.3,0.7,0.3,1c0,0.1,0,0.4-0.1,0.5c0,0.1-0.1,0.4-0.1,0.5
	c0,0-0.2,0.5-0.2,0.5c-0.3,0.8-0.9,1.7-1.7,2.5c-0.8,0.8-1.6,1.4-2.5,1.7c0,0-0.4,0.2-0.5,0.2c0,0-0.4,0.1-0.5,0.1
	c-0.1,0-0.4,0.1-0.5,0.1c-0.3,0-0.6-0.1-1-0.3C5.1,12,4.8,11.8,4.7,11.6L4.7,11.6z"/>
</svg>
