<svg xmlns="http://www.w3.org/2000/svg" width="10px" height="23px">
<style type="text/css">
	.st0{fill:none;stroke:#00CA63;stroke-width:1.3;stroke-miterlimit:10;}
</style>
<path class="st0" d="M7.7,0.7c0.6,0.2,1.1,0.6,1.5,1c0.1,0.1,0.1,0.2,0.2,0.2c0,0.1,0,0.4-0.1,0.8C9.1,3.2,9,3.8,8.8,4.4l-0.3,1
	c0,0.1,0,0.2-0.1,0.4c0,0.2-0.1,0.4-0.1,0.5c0,0.1-0.1,0.2-0.2,0.3C8,6.7,7.6,6.8,7.1,6.8c-0.5,0-1-0.1-1.5-0.1
	c-0.5,0-0.8,0-0.9,0.1C4.7,6.9,4.6,6.9,4.6,7c0,0.1-0.1,0.2-0.1,0.3c0,0.1-0.1,0.2-0.1,0.3c0,0.1-0.1,0.2-0.1,0.3
	c-0.4,1.2-0.5,2.4-0.5,3.6c0,1.2,0.2,2.4,0.5,3.6c0,0,0,0.1,0.1,0.3c0,0.1,0.1,0.2,0.1,0.3c0,0.1,0.1,0.2,0.1,0.3
	c0,0.1,0.1,0.2,0.2,0.2c0.1,0.1,0.3,0.2,0.7,0.2c0.3,0,0.7,0,1-0.1c0.3-0.1,0.7-0.1,1-0.1c0.3,0,0.6,0.1,0.7,0.2
	c0.1,0.1,0.1,0.2,0.2,0.3c0,0.1,0.1,0.3,0.1,0.5c0,0.2,0.1,0.3,0.1,0.4c0,0.1,0.1,0.2,0.2,0.5c0.1,0.3,0.2,0.6,0.2,0.9
	c0.1,0.3,0.2,0.6,0.3,0.9c0.1,0.3,0.2,0.6,0.2,0.8c0,0.2,0,0.4,0,0.4c0,0.1-0.1,0.1-0.2,0.2c-0.4,0.4-0.9,0.7-1.5,1
	c-0.5,0.2-1.2,0.1-2.1-0.2c-0.9-0.3-1.5-0.7-2-1.2c-0.1-0.1-0.3-0.3-0.4-0.4c-0.1-0.2-0.2-0.3-0.3-0.4c-0.1-0.1-0.2-0.3-0.3-0.5
	c-0.1-0.2-0.2-0.4-0.2-0.5c0-0.1-0.1-0.3-0.2-0.6C2,18.3,1.9,18.1,1.9,18c-0.8-1.8-1.3-4-1.3-6.5C0.6,9,1,6.8,1.9,5
	c0-0.1,0.1-0.2,0.2-0.5C2.2,4.2,2.3,4,2.4,3.9c0-0.1,0.1-0.3,0.2-0.5C2.7,3.2,2.8,3.1,2.9,3C3,2.8,3.1,2.7,3.2,2.5
	c0.1-0.2,0.3-0.3,0.4-0.4c0.5-0.5,1.1-0.9,2-1.2C6.5,0.6,7.2,0.5,7.7,0.7L7.7,0.7z"/>
</svg>
