<svg xmlns="http://www.w3.org/2000/svg" width="282px" height="30px">
<polygon style="fill:#0D69E1;" points="254.5,19.1 243.5,19.1 238,9.5 243.5,0 254.5,0 260,9.5 "/>
<path style="fill:#00CA63;" d="M18.2,15.8L18.2,15.8L10,30L1.8,15.8l0,0C0.7,14.1,0,12.1,0,10C0,4.5,4.5,0,10,0s10,4.5,10,10
	C20,12.1,19.3,14.1,18.2,15.8z M10,6.2c-2.1,0-3.8,1.7-3.8,3.8s1.7,3.8,3.8,3.8s3.8-1.7,3.8-3.8S12.1,6.2,10,6.2z"/>
<path style="fill:#349952;" d="M16.1,10c0,3.4-2.8,6.1-6.1,6.1S3.9,13.4,3.9,10S6.6,3.9,10,3.9S16.1,6.6,16.1,10z M10,6.2
	c-2.1,0-3.8,1.7-3.8,3.8s1.7,3.8,3.8,3.8s3.8-1.7,3.8-3.8S12.1,6.2,10,6.2z"/>
<path style="fill:#F26722;" d="M38.2,15.8L38.2,15.8L30,30l-8.2-14.2l0,0C20.7,14.1,20,12.1,20,10c0-5.5,4.5-10,10-10s10,4.5,10,10
	C40,12.1,39.3,14.1,38.2,15.8z M30,6.2c-2.1,0-3.8,1.7-3.8,3.8s1.7,3.8,3.8,3.8s3.8-1.7,3.8-3.8S32.1,6.2,30,6.2z"/>
<path style="fill:#C5571D;" d="M36.1,10c0,3.4-2.8,6.1-6.1,6.1s-6.1-2.8-6.1-6.1s2.8-6.1,6.1-6.1S36.1,6.6,36.1,10z M30,6.2
	c-2.1,0-3.8,1.7-3.8,3.8s1.7,3.8,3.8,3.8s3.8-1.7,3.8-3.8S32.1,6.2,30,6.2z"/>
<path style="fill:#F26722;" d="M62,9.9L51,30L40,9.9L45.5,0h11L62,9.9z M52.6,7c-3-1.4-5.9,1.5-4.5,4.5c0.3,0.6,0.8,1.1,1.4,1.4
	c3,1.4,5.9-1.5,4.5-4.5C53.7,7.7,53.2,7.2,52.6,7z"/>
<path style="fill:#00CA63;" d="M84,9.9L73,30L62,9.9L67.5,0h11L84,9.9z M74.6,7c-3-1.4-5.9,1.5-4.5,4.5c0.3,0.6,0.8,1.1,1.4,1.4
	c3,1.4,5.9-1.5,4.5-4.5C75.7,7.7,75.2,7.2,74.6,7z"/>
<path style="fill:#414042;" d="M106,9.9L95,30L84,9.9L89.5,0h11L106,9.9z M96.6,7c-3-1.4-5.9,1.5-4.5,4.5c0.3,0.6,0.8,1.1,1.4,1.4
	c3,1.4,5.9-1.5,4.5-4.5C97.7,7.7,97.2,7.2,96.6,7z"/>
<path style="fill:#BF2B2B;" d="M128,9.9L117,30L106,9.9l5.5-9.9h11L128,9.9z M118.6,7c-3-1.4-5.9,1.5-4.5,4.5
	c0.3,0.6,0.8,1.1,1.4,1.4c3,1.4,5.9-1.5,4.5-4.5C119.7,7.7,119.2,7.2,118.6,7z"/>
<path style="fill:#288FBE;" d="M150,9.9L139,30L128,9.9l5.5-9.9h11L150,9.9z M140.6,7c-3-1.4-5.9,1.5-4.5,4.5
	c0.3,0.6,0.8,1.1,1.4,1.4c3,1.4,5.9-1.5,4.5-4.5C141.7,7.7,141.2,7.2,140.6,7z"/>
<path style="fill:#EC008C;" d="M172,9.9L161,30L150,9.9l5.5-9.9h11L172,9.9z M162.6,7c-3-1.4-5.9,1.5-4.5,4.5
	c0.3,0.6,0.8,1.1,1.4,1.4c3,1.4,5.9-1.5,4.5-4.5C163.7,7.7,163.2,7.2,162.6,7z"/>
<path style="fill:#FFFFFF;" d="M253.6,7.5c0,1.2-0.4,2.1-1.1,2.7c-0.7,0.6-1.8,0.9-3.1,0.9h-1V15H246v-11h3.5c1.3,0,2.3,0.3,3,0.9
	C253.3,5.5,253.6,6.3,253.6,7.5z M248.4,9.2h0.8c0.7,0,1.2-0.1,1.6-0.4c0.4-0.3,0.5-0.7,0.5-1.2c0-0.5-0.1-0.9-0.4-1.2
	c-0.3-0.3-0.8-0.4-1.4-0.4h-1.1V9.2z"/>
<polygon style="fill:#00CA63;" points="210.5,0 199.5,19.1 199.5,19.1 210.5,19.1 216,9.5 "/>
<polygon style="fill:#F26722;" points="210.5,0 199.5,0 194,9.5 199.5,19.1 210.5,0 "/>
<polygon style="fill:#FFFFFF;" points="202,14.8 208,14.8 211.1,9.5 208,4.3 202,4.3 198.9,9.5 "/>
<polygon style="fill:#00CA63;" points="188.5,19.1 177.5,19.1 172,9.5 177.5,0 188.5,0 194,9.5 "/>
<polygon style="fill:#FFFFFF;" points="180,14.8 186,14.8 189.1,9.5 186,4.3 180,4.3 176.9,9.5 "/>
<polygon style="fill:#0D69E1;" points="232.5,19.1 221.5,19.1 216,9.5 221.5,0 232.5,0 238,9.5 "/>
<circle style="fill:none;stroke:#FFFFFF;stroke-miterlimit:10;" cx="222.8" cy="11.9" r="2.5"/>
<circle style="fill:none;stroke:#FFFFFF;stroke-miterlimit:10;" cx="231.2" cy="11.9" r="2.5"/>
<circle style="fill:none;stroke:#FFFFFF;stroke-miterlimit:10;" cx="229.3" cy="5.1" r="1.2"/>
<path style="fill:none;stroke:#FFFFFF;stroke-linejoin:round;stroke-miterlimit:10;" d="M230.2,7.9c-2.2,0.3-3-1-3-1l-2,2.1
	c0,0,1.9,1,1.5,3.8"/>
<line style="fill:none;stroke:#00CA63;stroke-width:3;stroke-miterlimit:10;" x1="260" y1="9.4" x2="282" y2="9.4"/>
</svg>
