<svg xmlns="http://www.w3.org/2000/svg" width="181px" height="35px">
<polygon points="30.7,5.4 30.7,25.1 26.6,25.1 26.6,9.3 18,9.3 18,25.1 13.9,25.1 13.9,5.4 "/>
<path d="M58.7,15.3c0,6.3-4.4,10.3-9.8,10.3c-2.8,0-5.5-1.1-6.8-3.3v12.5h-4.1V5.4h4.1v3c1.3-2.2,4.2-3.4,6.8-3.4
	C54.2,4.9,58.7,9,58.7,15.3 M54.5,15.3c0-3.7-2.7-6.5-6.1-6.5c-3.3,0-6.3,2.5-6.3,6.5c0,4,3.3,6.3,6.3,6.3
	C51.8,21.6,54.5,19,54.5,15.3"/>
<polygon points="101.7,25.1 95,17.9 95,25.1 90.9,25.1 90.9,5.4 95,5.4 95,12.5 100.4,5.4 105.4,5.4 97.6,15.1 107.2,25.1 "/>
<polygon points="124.8,9.3 118.9,9.3 118.9,25.1 114.8,25.1 114.8,9.3 108.9,9.3 108.9,5.4 124.8,5.4 "/>
<polygon points="146.9,5.4 146.9,25.1 142.7,25.1 142.7,12.2 133.3,25.1 129.8,25.1 129.8,5.4 134,5.4 134,18 143.2,5.4 "/>
<polygon points="165,25.1 158.3,17.9 158.3,25.1 154.1,25.1 154.1,5.4 158.3,5.4 158.3,12.5 163.7,5.4 168.6,5.4 160.9,15.1 
	170.5,25.1 "/>
<path d="M84.6,15c-0.1-6.1-4.8-10-10.4-10c-5.6,0-10.4,4-10.4,10.2c0,6.3,4.7,10.4,10.4,10.4c2.2,0,4.7-0.9,6.2-2.3c0,0,0,0,0,0v2.1
	h4.1L84.6,15L84.6,15z M74.2,21.6c-3.4,0-6.2-2.6-6.2-6.4c0-3.8,2.8-6.3,6.2-6.3c3.4,0,6.3,2.5,6.3,6.3C80.4,19,77.6,21.6,74.2,21.6
	"/>
<path d="M6.4,2l0.2-0.3L5.1,0.5L4.9,0.7C3.5,2.3,2.3,4.5,1.3,7.3C0.4,10,0,12.8,0,15.4c0,2.6,0.5,5.3,1.4,8c0.9,2.7,2.1,4.9,3.5,6.5
	l0.2,0.3l1.5-1.2l-0.2-0.3c-1.3-1.5-2.3-3.5-3.2-6c-0.8-2.5-1.3-5-1.3-7.2c0-2.3,0.4-4.8,1.2-7.3C4,5.5,5.1,3.5,6.4,2"/>
<path d="M179.7,7.3c-0.9-2.8-2.1-5-3.5-6.6l-0.2-0.3l-1.5,1.2l0.2,0.3c1.3,1.5,2.4,3.5,3.2,6.1c0.8,2.5,1.3,5,1.2,7.3
	c0,2.3-0.4,4.7-1.3,7.2c-0.8,2.5-1.9,4.5-3.2,6l-0.2,0.3l1.5,1.2l0.2-0.3c1.4-1.6,2.6-3.7,3.5-6.5c0.9-2.7,1.4-5.4,1.4-8
	C181,12.8,180.6,10,179.7,7.3"/>
</svg>
