<svg xmlns="http://www.w3.org/2000/svg" width="114px" height="21.7px">
<style type="text/css">
	.st0{fill:#FFFFFF;}
</style>

	<polygon class="st0" points="19.3,3.1 19.3,15.5 16.7,15.5 16.7,5.6 11.4,5.6 11.4,15.5 8.7,15.5 8.7,3.1 	"/>
	<path class="st0" d="M37,9.3c0,4-2.8,6.5-6.2,6.5c-1.8,0-3.5-0.7-4.3-2.1v7.9h-2.6V3.1h2.6V5c0.8-1.4,2.6-2.1,4.3-2.1
		C34.2,2.8,37,5.4,37,9.3 M34.4,9.3c0-2.3-1.7-4.1-3.9-4.1c-2.1,0-4,1.6-4,4.1c0,2.5,2.1,4,4,4C32.7,13.3,34.4,11.7,34.4,9.3"/>
	<polygon class="st0" points="64.1,15.5 59.8,11 59.8,15.5 57.2,15.5 57.2,3.1 59.8,3.1 59.8,7.6 63.2,3.1 66.4,3.1 61.5,9.2 
		67.5,15.5 	"/>
	<polygon class="st0" points="78.6,5.6 74.9,5.6 74.9,15.5 72.3,15.5 72.3,5.6 68.6,5.6 68.6,3.1 78.6,3.1 	"/>
	<polygon class="st0" points="92.5,3.1 92.5,15.5 89.9,15.5 89.9,7.4 84,15.5 81.8,15.5 81.8,3.1 84.4,3.1 84.4,11.1 90.2,3.1 	"/>
	<polygon class="st0" points="103.9,15.5 99.7,11 99.7,15.5 97.1,15.5 97.1,3.1 99.7,3.1 99.7,7.6 103.1,3.1 106.2,3.1 101.3,9.2 
		107.4,15.5 	"/>
	<path class="st0" d="M53.3,9.1c-0.1-3.9-3-6.3-6.5-6.3c-3.5,0-6.5,2.5-6.5,6.4c0,3.9,3,6.5,6.5,6.5c1.4,0,3-0.5,3.9-1.5
		c0,0,0,0,0,0v1.3h2.6L53.3,9.1L53.3,9.1z M46.7,13.3c-2.1,0-3.9-1.6-3.9-4c0-2.4,1.8-4,3.9-4c2.1,0,3.9,1.6,3.9,4
		C50.7,11.7,48.8,13.3,46.7,13.3"/>
	<path class="st0" d="M4,1l0.2-0.2L3.2,0L3.1,0.2c-0.9,1-1.7,2.4-2.2,4.1C0.3,6,0,7.7,0,9.4c0,1.6,0.3,3.3,0.9,5
		c0.6,1.7,1.3,3.1,2.2,4.1l0.1,0.2l0.9-0.8L4,17.7c-0.8-0.9-1.5-2.2-2-3.8c-0.5-1.6-0.8-3.1-0.8-4.5c0-1.5,0.2-3,0.8-4.6
		C2.5,3.2,3.2,1.9,4,1"/>
	<path class="st0" d="M113.2,4.3c-0.6-1.7-1.3-3.1-2.2-4.1L110.8,0l-0.9,0.8L110,1c0.8,0.9,1.5,2.2,2,3.8c0.5,1.6,0.8,3.1,0.8,4.6
		c0,1.4-0.3,3-0.8,4.5c-0.5,1.6-1.2,2.9-2,3.8l-0.2,0.2l0.9,0.8l0.1-0.2c0.9-1,1.6-2.4,2.2-4.1c0.6-1.7,0.9-3.4,0.9-5
		C114,7.7,113.7,6,113.2,4.3"/>
</svg>
