<?xml version="1.0" standalone="no"?>
<!DOCTYPE svg PUBLIC "-//W3C//DTD SVG 20010904//EN"
 "http://www.w3.org/TR/2001/REC-SVG-20010904/DTD/svg10.dtd">
<svg version="1.0" xmlns="http://www.w3.org/2000/svg"
 width="260.000000pt" height="260.000000pt" viewBox="0 0 260.000000 260.000000"
 preserveAspectRatio="xMidYMid meet">
<metadata>
Created by potrace 1.14, written by Peter Selinger 2001-2017
</metadata>
<g transform="translate(0.000000,260.000000) scale(0.100000,-0.100000)"
fill="#000000" stroke="none">
<path d="M432 2007 c-125 -136 -232 -463 -232 -705 0 -138 45 -349 106 -495
29 -70 104 -194 132 -220 17 -16 20 -15 53 12 25 22 32 33 24 43 -92 129 -138
230 -182 398 -31 118 -41 305 -23 418 27 169 99 357 175 457 20 26 34 53 31
60 -2 7 -18 22 -34 33 l-29 21 -21 -22z"/>
<path d="M2110 2001 l-34 -28 48 -71 c60 -90 110 -206 144 -330 23 -87 26
-115 26 -267 0 -151 -3 -180 -26 -265 -39 -143 -82 -247 -140 -334 l-51 -79
33 -29 c32 -26 35 -27 52 -11 28 26 103 150 132 220 61 146 106 357 106 495 0
207 -75 471 -180 631 -65 100 -69 103 -110 68z"/>
<path d="M890 1305 l0 -485 100 0 100 0 0 390 0 390 210 0 210 0 0 -390 0
-390 100 0 100 0 0 485 0 485 -410 0 -410 0 0 -485z"/>
</g>
</svg>
